#!OML:ASF H:\Dans Jumps\Project 1\Capture day 1\Session 1\subject.ASF
:FULLY-SPECIFIED
:DEGREES
491
root 0.442329 17.6082 6.83684 8.26371 -2.40734 -1.78473
lowerback -3.16164 -0.812973 -0.48491
upperback 0.699145 -1.09582 1.27103
thorax 2.52435 -0.563687 1.51907
lowerneck -5.76857 -9.91759 -6.57948
upperneck 8.16593 -13.1598 4.807
head 4.13139 -6.4826 1.73438
rclavicle 1.16165e-014 1.799e-014
rhumerus -27.4327 -16.8219 -80.3709
rradius 21.7471
rwrist 38.6324
rhand -18.6445 -26.1495
rfingers 7.12502
rthumb 7.64831 -55.9912
lclavicle 1.16165e-014 1.799e-014
lhumerus -31.2659 1.84868 88.2947
lradius 19.284
lwrist 5.72178
lhand -24.8506 -1.72647
lfingers 7.12502
lthumb 1.65581 28.2468
rfemur -14.204 -1.97915 20.3601
rtibia 23.5074
rfoot -15.9941 1.33539
rtoes 12.5746
lfemur -12.3555 9.29722 -18.0498
ltibia 20.8268
lfoot -12.6326 7.40036
ltoes -1.14051
492
root 0.442219 17.6076 6.8392 8.24476 -2.46533 -1.79611
lowerback -3.1904 -0.839915 -0.509603
upperback 0.677467 -1.13086 1.28079
thorax 2.52 -0.581491 1.54083
lowerneck -5.71482 -9.98219 -6.59462
upperneck 7.94638 -13.2479 4.88986
head 4.06712 -6.5249 1.76303
rclavicle -4.15584e-015 -2.13694e-015
rhumerus -27.3364 -16.6696 -80.4724
rradius 21.8319
rwrist 38.4832
rhand -18.6494 -26.1709
rfingers 7.12502
rthumb 7.64354 -56.0128
lclavicle -4.15584e-015 -2.13694e-015
lhumerus -31.2231 1.81381 88.2849
lradius 19.3447
lwrist 5.79069
lhand -24.98 -1.94652
lfingers 7.12502
lthumb 1.53091 28.0277
rfemur -14.1841 -1.95371 20.3688
rtibia 23.5116
rfoot -15.9958 1.35913
rtoes 12.5631
lfemur -12.3114 9.30264 -18.0346
ltibia 20.8215
lfoot -12.6371 7.45114
ltoes -1.0989
493
root 0.442134 17.607 6.84153 8.22743 -2.52209 -1.81205
lowerback -3.2218 -0.865371 -0.527487
upperback 0.655982 -1.16421 1.29152
thorax 2.51719 -0.598363 1.5598
lowerneck -5.66822 -10.0385 -6.6073
upperneck 7.74655 -13.3246 4.96587
head 4.00889 -6.56164 1.78933
rclavicle -1.53251e-014 9.83984e-015
rhumerus -27.241 -16.5237 -80.5706
rradius 21.927
rwrist 38.3205
rhand -18.6646 -26.1892
rfingers 7.12502
rthumb 7.62889 -56.0316
lclavicle -1.53251e-014 9.83984e-015
lhumerus -31.1772 1.7898 88.2685
lradius 19.4114
lwrist 5.84791
lhand -25.0772 -2.14041
lfingers 7.12502
lthumb 1.43705 27.8345
rfemur -14.1635 -1.92004 20.3823
rtibia 23.5113
rfoot -15.9948 1.37606
rtoes 12.5549
lfemur -12.2735 9.30778 -18.0147
ltibia 20.8236
lfoot -12.6436 7.5032
ltoes -1.05804
494
root 0.442097 17.6064 6.84399 8.21101 -2.57901 -1.83679
lowerback -3.25616 -0.888339 -0.534165
upperback 0.634089 -1.19475 1.30378
thorax 2.51536 -0.61367 1.57414
lowerneck -5.62193 -10.086 -6.61679
upperneck 7.55984 -13.3897 5.03825
head 3.9537 -6.59278 1.81465
rclavicle -8.24335e-015 -4.52235e-015
rhumerus -27.1504 -16.3822 -80.6651
rradius 22.0343
rwrist 38.1461
rhand -18.6864 -26.2028
rfingers 7.12502
rthumb 7.60787 -56.0459
lclavicle -8.24335e-015 -4.52235e-015
lhumerus -31.128 1.76544 88.2505
lradius 19.4917
lwrist 5.92513
lhand -25.1513 -2.25534
lfingers 7.12502
lthumb 1.36545 27.72
rfemur -14.1395 -1.87774 20.4051
rtibia 23.505
rfoot -15.9909 1.38955
rtoes 12.5716
lfemur -12.2384 9.31294 -17.9853
ltibia 20.8307
lfoot -12.6524 7.55839
ltoes -1.01613
495
root 0.442091 17.6057 6.84664 8.19311 -2.63756 -1.86417
lowerback -3.29254 -0.908518 -0.535717
upperback 0.612217 -1.22175 1.31532
thorax 2.51448 -0.62714 1.58501
lowerneck -5.57777 -10.1255 -6.62096
upperneck 7.39135 -13.4443 5.10295
head 3.90303 -6.61888 1.83716
rclavicle 2.02698e-014 -2.23633e-015
rhumerus -27.0665 -16.2435 -80.7569
rradius 22.1537
rwrist 37.9605
rhand -18.7059 -26.2196
rfingers 7.12502
rthumb 7.58905 -56.0634
lclavicle 2.02698e-014 -2.23633e-015
lhumerus -31.0804 1.74659 88.228
lradius 19.5747
lwrist 5.99532
lhand -25.2191 -2.37222
lfingers 7.12502
lthumb 1.29996 27.6036
rfemur -14.1104 -1.8274 20.4303
rtibia 23.4938
rfoot -15.9857 1.39843
rtoes 12.5972
lfemur -12.2013 9.31925 -17.9528
ltibia 20.8391
lfoot -12.6624 7.61519
ltoes -0.985017
496
root 0.442177 17.6051 6.84987 8.16949 -2.69747 -1.89291
lowerback -3.33015 -0.926559 -0.534541
upperback 0.592666 -1.24605 1.32689
thorax 2.51654 -0.639239 1.59447
lowerneck -5.53816 -10.1578 -6.62101
upperneck 7.23773 -13.4892 5.16159
head 3.85644 -6.64024 1.8574
rclavicle -1.75365e-014 1.11071e-014
rhumerus -26.9878 -16.1017 -80.8463
rradius 22.284
rwrist 37.7658
rhand -18.7311 -26.2333
rfingers 7.12502
rthumb 7.56472 -56.0781
lclavicle -1.75365e-014 1.11071e-014
lhumerus -31.0323 1.74333 88.199
lradius 19.6298
lwrist 6.01732
lhand -25.3235 -2.65215
lfingers 7.12502
lthumb 1.19915 27.3242
rfemur -14.07 -1.77396 20.4559
rtibia 23.4781
rfoot -15.9817 1.40708
rtoes 12.6258
lfemur -12.1542 9.32678 -17.9181
ltibia 20.8467
lfoot -12.6748 7.67319
ltoes -0.950626
497
root 0.442368 17.6043 6.85329 8.14238 -2.75663 -1.92106
lowerback -3.36648 -0.944393 -0.532963
upperback 0.573951 -1.2701 1.33907
thorax 2.51874 -0.651223 1.60434
lowerneck -5.49897 -10.1831 -6.61766
upperneck 7.09611 -13.5245 5.21158
head 3.81225 -6.65711 1.87501
rclavicle -1.3828e-014 5.71506e-015
rhumerus -26.9103 -15.961 -80.9334
rradius 22.42
rwrist 37.5705
rhand -18.7459 -26.2556
rfingers 7.12502
rthumb 7.55045 -56.1009
lclavicle -1.3828e-014 5.71506e-015
lhumerus -30.9833 1.743 88.1721
lradius 19.655
lwrist 6.01812
lhand -25.4966 -3.11866
lfingers 7.12502
lthumb 1.03197 26.8586
rfemur -14.0232 -1.72039 20.4803
rtibia 23.4596
rfoot -15.9784 1.41476
rtoes 12.6541
lfemur -12.1005 9.33398 -17.8839
ltibia 20.851
lfoot -12.6862 7.7312
ltoes -0.92508
498
root 0.442715 17.6036 6.85687 8.11221 -2.81334 -1.94405
lowerback -3.40431 -0.962339 -0.534973
upperback 0.558564 -1.29417 1.35059
thorax 2.52528 -0.663299 1.61547
lowerneck -5.46009 -10.2031 -6.61177
upperneck 6.9596 -13.5526 5.25643
head 3.76874 -6.67054 1.89115
rclavicle 1.82074e-014 -2.23633e-016
rhumerus -26.8274 -15.8257 -81.0174
rradius 22.5527
rwrist 37.3826
rhand -18.7622 -26.2758
rfingers 7.12502
rthumb 7.53472 -56.1216
lclavicle 1.82074e-014 -2.23633e-016
lhumerus -30.9199 1.73942 88.1478
lradius 19.6666
lwrist 6.02474
lhand -25.6815 -3.61663
lfingers 7.12502
lthumb 0.853346 26.3614
rfemur -13.9707 -1.67461 20.4983
rtibia 23.4383
rfoot -15.9766 1.42591
rtoes 12.6713
lfemur -12.0409 9.33987 -17.8557
ltibia 20.8524
lfoot -12.6973 7.7872
ltoes -0.893178
499
root 0.443193 17.6029 6.86045 8.082 -2.86645 -1.96192
lowerback -3.44258 -0.980897 -0.541881
upperback 0.544732 -1.31888 1.36269
thorax 2.53382 -0.675784 1.62988
lowerneck -5.4197 -10.22 -6.60723
upperneck 6.82505 -13.576 5.29734
head 3.72517 -6.68196 1.90672
rclavicle 2.10836e-014 -6.36111e-015
rhumerus -26.7356 -15.6979 -81.0971
rradius 22.6752
rwrist 37.2033
rhand -18.7864 -26.2933
rfingers 7.12502
rthumb 7.51131 -56.14
lclavicle 2.10836e-014 -6.36111e-015
lhumerus -30.8431 1.72515 88.1318
lradius 19.6899
lwrist 6.08309
lhand -25.8383 -3.98786
lfingers 7.12502
lthumb 0.701876 25.9907
rfemur -13.9177 -1.63726 20.5104
rtibia 23.4169
rfoot -15.9764 1.44012
rtoes 12.6775
lfemur -11.9799 9.34744 -17.834
ltibia 20.8496
lfoot -12.7056 7.83703
ltoes -0.872415
500
root 0.44387 17.6023 6.86408 8.05378 -2.91322 -1.98059
lowerback -3.48568 -0.999566 -0.544806
upperback 0.533409 -1.34395 1.37553
thorax 2.54762 -0.688438 1.64266
lowerneck -5.40026 -10.2393 -6.64578
upperneck 6.45259 -13.5772 5.15731
head 4.00343 -6.70517 2.09325
rclavicle 1.8838e-014 1.0312e-014
rhumerus -26.6362 -15.5795 -81.1723
rradius 22.7888
rwrist 37.0351
rhand -18.7954 -26.3204
rfingers 7.12502
rthumb 7.50267 -56.1674
lclavicle 1.8838e-014 1.0312e-014
lhumerus -30.7514 1.70265 88.1205
lradius 19.7566
lwrist 6.21936
lhand -25.9063 -4.05144
lfingers 7.12502
lthumb 0.636288 25.9274
rfemur -13.8661 -1.61355 20.5229
rtibia 23.3959
rfoot -15.9774 1.46077
rtoes 12.6724
lfemur -11.9193 9.35535 -17.8124
ltibia 20.8424
lfoot -12.714 7.87928
ltoes -0.851734
501
root 0.44467 17.6019 6.86763 8.02831 -2.95619 -1.9892
lowerback -3.53388 -1.01767 -0.555025
upperback 0.524821 -1.36792 1.38543
thorax 2.56717 -0.700663 1.65644
lowerneck -5.35094 -10.2554 -6.64634
upperneck 6.32014 -13.5998 5.19953
head 3.95216 -6.7162 2.11113
rclavicle -6.94815e-015 8.24956e-015
rhumerus -26.5279 -15.4754 -81.2426
rradius 22.8888
rwrist 36.8798
rhand -18.8085 -26.3399
rfingers 7.12502
rthumb 7.49002 -56.1873
lclavicle -6.94815e-015 8.24956e-015
lhumerus -30.6443 1.68809 88.1068
lradius 19.8753
lwrist 6.42762
lhand -25.8372 -3.74067
lfingers 7.12502
lthumb 0.702935 26.2379
rfemur -13.8192 -1.60056 20.5241
rtibia 23.3772
rfoot -15.9795 1.48729
rtoes 12.6664
lfemur -11.8607 9.3631 -17.8032
ltibia 20.83
lfoot -12.7198 7.91486
ltoes -0.838063
502
root 0.445598 17.6016 6.87137 8.00505 -2.99713 -1.99468
lowerback -3.58708 -1.03445 -0.564107
upperback 0.517984 -1.39011 1.39303
thorax 2.5912 -0.711998 1.66718
lowerneck -5.30294 -10.2717 -6.64848
upperneck 6.19206 -13.6228 5.24255
head 3.90308 -6.72741 2.12934
rclavicle 2.31708e-015 9.83984e-015
rhumerus -26.4184 -15.3745 -81.3105
rradius 22.9826
rwrist 36.7308
rhand -18.8342 -26.3451
rfingers 7.12502
rthumb 7.46519 -56.1933
lclavicle 2.31708e-015 9.83984e-015
lhumerus -30.5263 1.6759 88.0909
lradius 20.0356
lwrist 6.69702
lhand -25.6603 -3.10864
lfingers 7.12502
lthumb 0.873883 26.8693
rfemur -13.7747 -1.5962 20.5213
rtibia 23.3606
rfoot -15.9826 1.52111
rtoes 12.6762
lfemur -11.8017 9.37421 -17.7984
ltibia 20.812
lfoot -12.7248 7.94329
ltoes -0.825134
